<?xml version="1.0" encoding="utf-8"?>
<!-- Generator: Adobe Illustrator 18.1.1, SVG Export Plug-In . SVG Version: 6.00 Build 0)  -->
<svg version="1.1" xmlns="http://www.w3.org/2000/svg" xmlns:xlink="http://www.w3.org/1999/xlink" x="0px" y="0px"
	 viewBox="0 0 329 229" enable-background="new 0 0 329 229" xml:space="preserve">
<g id="Layer_1">
	<rect x="14.5" y="14.5" fill="#FFFFFF" stroke="#000000" stroke-width="29" stroke-miterlimit="10" width="300" height="200"/>
	<rect x="54.2" y="75" fill="none" width="219.3" height="116.7"/>
	<text transform="matrix(1 0 0 1 78.6857 149.0155)"><tspan x="0" y="0" fill="#21409A" font-family="'SourceSansPro-It'" font-size="104">V</tspan><tspan x="51.6" y="0" fill="#ED1C24" font-family="'SourceSansPro-It'" font-size="104">C</tspan><tspan x="108.8" y="0" fill="#FFDE17" font-family="'SourceSansPro-It'" font-size="104">D</tspan></text>
</g>
<g id="Layer_2">
	<circle fill="none" stroke="#00A14B" stroke-miterlimit="10" cx="271.1" cy="171.2" r="18.5"/>
	<circle fill="none" stroke="#00A14B" stroke-miterlimit="10" cx="261.5" cy="148.8" r="14.2"/>
	<circle fill="none" stroke="#00A14B" stroke-miterlimit="10" cx="283.8" cy="153.5" r="14.4"/>
	<circle fill="none" stroke="#00A14B" stroke-miterlimit="10" cx="256.2" cy="189.1" r="8.9"/>
	<rect x="242" y="167.9" fill="none" stroke="#ED1C24" stroke-miterlimit="10" width="23.2" height="23.2"/>
	<rect x="280.5" y="171.2" fill="none" stroke="#ED1C24" stroke-miterlimit="10" width="12.7" height="12.7"/>
	<polygon fill="none" stroke="#21409A" stroke-miterlimit="10" points="261.9,147.1 271.1,131.1 280.3,147.1 	"/>
	<polygon fill="none" stroke="#21409A" stroke-miterlimit="10" points="261.6,185.5 265.8,153.7 291.2,173.2 	"/>
	
		<rect x="270.3" y="135.9" transform="matrix(-0.2746 -0.9616 0.9616 -0.2746 217.4856 458.9801)" fill="none" stroke="#ED1C24" stroke-miterlimit="10" width="23.2" height="23.2"/>
	<polygon fill="none" stroke="#21409A" stroke-miterlimit="10" points="270.8,189.1 286.9,180.1 286.7,198.6 	"/>
	<circle fill="none" stroke="#00A14B" stroke-miterlimit="10" cx="56.5" cy="58.1" r="18.5"/>
	<circle fill="none" stroke="#00A14B" stroke-miterlimit="10" cx="66.1" cy="80.5" r="14.2"/>
	<circle fill="none" stroke="#00A14B" stroke-miterlimit="10" cx="43.8" cy="75.8" r="14.4"/>
	<circle fill="none" stroke="#00A14B" stroke-miterlimit="10" cx="71.4" cy="40.2" r="8.9"/>
	<rect x="62.4" y="38.2" fill="none" stroke="#ED1C24" stroke-miterlimit="10" width="23.2" height="23.2"/>
	<rect x="34.3" y="45.4" fill="none" stroke="#ED1C24" stroke-miterlimit="10" width="12.7" height="12.7"/>
	<polygon fill="none" stroke="#21409A" stroke-miterlimit="10" points="65.7,82.1 56.5,98.1 47.2,82.1 	"/>
	<polygon fill="none" stroke="#21409A" stroke-miterlimit="10" points="65.9,43.8 61.8,75.5 36.4,56.1 	"/>
	
		<rect x="34.1" y="70.2" transform="matrix(0.2746 0.9616 -0.9616 0.2746 111.8234 15.4027)" fill="none" stroke="#ED1C24" stroke-miterlimit="10" width="23.2" height="23.2"/>
	<polygon fill="none" stroke="#21409A" stroke-miterlimit="10" points="56.8,40.1 40.7,49.2 40.9,30.7 	"/>
</g>
</svg>
